<svg width="22" height="21" viewBox="0 0 22 21" fill="none" xmlns="http://www.w3.org/2000/svg">
<path d="M11.4337 17.3441L13.994 14.786V16.2903V16.5403H14.244H17.5873C18.0625 16.5403 18.5039 16.3146 18.7599 15.9617L18.7599 15.9616L19.5261 14.9039L11.4337 17.3441ZM11.4337 17.3441L13.994 19.9022M11.4337 17.3441L13.994 19.9022M13.994 19.9022V18.3979V18.1479H14.244H17.5873C18.5672 18.1479 19.4916 17.6925 20.0627 16.9052C20.0627 16.9052 20.0627 16.9051 20.0628 16.9051L20.829 15.8473L20.8291 15.8471C21.4651 14.9708 21.5485 13.799 21.0385 12.8454L21.0307 12.8313L19.3441 9.96408L17.9564 10.779L19.6134 13.595L19.6187 13.6041L19.6185 13.6042C19.8441 14.0274 19.8134 14.5078 19.5262 14.9037L13.994 19.9022ZM7.37317 2.3132L7.37335 2.31331L7.37815 2.30439C7.90282 1.32895 8.93867 0.733887 10.0583 0.733887H12.1553C13.2763 0.733887 14.3152 1.33129 14.8394 2.31016L14.8392 2.31025L14.8443 2.31892L16.5314 5.1859L16.6595 5.40359L16.8758 5.27326L18.2209 4.46302L17.3492 7.97513L13.8356 7.10246L15.0692 6.36001L15.2813 6.23237L15.1558 6.01904L13.427 3.08058L13.4191 3.06635C13.1853 2.63152 12.6992 2.34141 12.1553 2.34141H10.0583C9.5147 2.34141 9.0298 2.63234 8.79673 3.06407L8.78882 3.0783L7.19564 5.77257L5.81133 4.95463L7.37317 2.3132ZM1.66991 8.56787L5.20178 7.77018L5.99851 11.2991L4.70827 10.4849L4.49061 10.3476L4.35964 10.5691L2.57371 13.5905L2.57353 13.5904L2.56868 13.5994C2.34035 14.0244 2.37006 14.5049 2.65846 14.9036L2.65855 14.9037L3.42461 15.9613C3.42465 15.9613 3.42469 15.9614 3.42473 15.9614C3.67999 16.3148 4.12043 16.5403 4.59752 16.5403H8.72069V18.1479H4.59752C3.61553 18.1479 2.69008 17.6906 2.12027 16.9014L2.11991 16.9009L1.4013 15.9107V15.9089L1.35385 15.8433C0.718393 14.9649 0.637365 13.7918 1.14822 12.8394L1.156 12.8254L3.00615 9.69782L3.12986 9.4887L2.92435 9.35908L1.66991 8.56787Z" fill="#B5FF00" stroke="black" stroke-width="0.5"/>
</svg>
