<svg width="49" height="48" viewBox="0 0 49 48" fill="none" xmlns="http://www.w3.org/2000/svg">
<path d="M22.4166 6C20.1271 6 17.998 7.21819 16.9166 9.23047L13.7134 14.6523L17.1548 16.6875L20.4205 11.1602L20.44 11.125C20.7945 10.4653 21.55 10 22.4166 10H26.3931C27.2609 10 28.018 10.4642 28.3736 11.1289L28.3931 11.1641L31.6744 16.7461L28.3541 18.7461L36.5884 20.793L38.6314 12.5547L35.1002 14.6836L31.9009 9.24219C30.8205 7.22289 28.6854 6 26.3931 6H22.4166ZM13.565 19.2617L5.28765 21.1328L8.63531 23.2461L5.12359 29.1875L5.10406 29.2227C4.04704 31.1921 4.21447 33.6152 5.52593 35.4297V35.4336L6.97906 37.4375C8.15226 39.0638 10.0528 40 12.0611 40H20.3541V36H12.0611C11.3014 36 10.612 35.6394 10.2212 35.0977L8.76812 33.0898C8.32759 32.4803 8.28442 31.7637 8.6314 31.1172L12.0181 25.3828L15.4322 27.5391L13.565 19.2617ZM40.1939 23.3438L36.7447 25.3711L40.1275 31.125C40.47 31.7681 40.4252 32.4853 39.9869 33.0898L38.5337 35.0977C38.1413 35.6392 37.4497 36 36.6939 36H30.3541V32L24.3541 38L30.3541 44V40H36.6939C38.6981 40 40.5964 39.0677 41.772 37.4453L43.2252 35.4375C44.5379 33.6272 44.7101 31.2063 43.6548 29.2344L43.6353 29.1992L40.1939 23.3438Z" fill="#999999"/>
</svg>
