<svg width="157" height="157" viewBox="0 0 157 157" fill="none" xmlns="http://www.w3.org/2000/svg">
<path d="M1.5 15C1.5 7.54416 7.54416 1.5 15 1.5H142C149.456 1.5 155.5 7.54416 155.5 15V142C155.5 149.456 149.456 155.5 142 155.5H15C7.54416 155.5 1.5 149.456 1.5 142V15Z" fill="#4FA040" stroke="#F4D005" stroke-width="3"/>
<path d="M25.6847 52.4978H67.6847V58.8478H25.6847V52.4978ZM40.7347 26.3478C40.7347 28.3478 40.468 30.0812 39.9347 31.5478L45.5847 37.3978C47.6847 34.8312 49.168 32.8312 50.0347 31.3978C50.8347 30.0312 51.2347 28.2312 51.2347 25.9978V19.6478H58.2347V26.0978C58.2347 27.8978 58.1013 29.3478 57.8347 30.4478L67.6847 40.8478L62.9847 45.3978L54.7347 36.5478C53.7013 38.0478 52.468 39.6145 51.0347 41.2478C49.6347 42.8812 47.968 44.7312 46.0347 46.7978L36.5347 37.3478C34.3347 40.5812 32.168 43.4645 30.0347 45.9978L24.8847 41.9478C26.2513 40.4145 27.5847 38.7312 28.8847 36.8978C30.218 35.0312 31.368 33.3145 32.3347 31.7478C33.268 30.2145 33.7347 28.3478 33.7347 26.1478V19.6478H40.7347V26.3478Z" fill="#F4D005"/>
<path d="M88.4955 108.75C87.1955 108.75 86.2288 108.417 85.5955 107.75C84.9621 107.05 84.6455 105.983 84.6455 104.55V85.95H91.4455V91.75H101.345V85.95H108.145V108.75H88.4955ZM89.2455 118.95V112.75H117.495C118.795 112.75 119.762 113.1 120.395 113.8C121.062 114.467 121.395 115.517 121.395 116.95V130.7H114.295V118.95H89.2455ZM121.545 93.8H127.895V100H121.545V110.25H114.495V85H121.545V93.8ZM91.4455 97.45V103H101.345V97.45H91.4455Z" fill="#F4D005"/>
</svg>
