<svg width="16" height="16" viewBox="0 0 16 16" fill="none" xmlns="http://www.w3.org/2000/svg">
<path d="M14.4094 15.6781L9.33438 10.6031C8.88125 10.9656 8.36016 11.2526 7.77109 11.4641C7.18203 11.6755 6.55521 11.7812 5.89062 11.7812C4.24427 11.7812 2.85106 11.2112 1.711 10.0712C0.570333 8.93049 0 7.53698 0 5.89062C0 4.24427 0.570333 2.85076 1.711 1.71009C2.85106 0.570031 4.24427 0 5.89062 0C7.53698 0 8.93049 0.570031 10.0712 1.71009C11.2112 2.85076 11.7812 4.24427 11.7812 5.89062C11.7812 6.55521 11.6755 7.18203 11.4641 7.77109C11.2526 8.36016 10.9656 8.88125 10.6031 9.33438L15.7008 14.432C15.8669 14.5982 15.95 14.8021 15.95 15.0438C15.95 15.2854 15.8594 15.4969 15.6781 15.6781C15.512 15.8443 15.3005 15.9273 15.0438 15.9273C14.787 15.9273 14.5755 15.8443 14.4094 15.6781ZM5.89062 9.96875C7.02344 9.96875 7.98648 9.57242 8.77975 8.77975C9.57242 7.98648 9.96875 7.02344 9.96875 5.89062C9.96875 4.75781 9.57242 3.79477 8.77975 3.0015C7.98648 2.20883 7.02344 1.8125 5.89062 1.8125C4.75781 1.8125 3.79477 2.20883 3.0015 3.0015C2.20883 3.79477 1.8125 4.75781 1.8125 5.89062C1.8125 7.02344 2.20883 7.98648 3.0015 8.77975C3.79477 9.57242 4.75781 9.96875 5.89062 9.96875Z" fill="black"/>
</svg>
